<?xml version="1.0" encoding="UTF-8" standalone="no"?>
<!DOCTYPE svg PUBLIC "-//W3C//DTD SVG 1.1//EN"
 "http://www.w3.org/Graphics/SVG/1.1/DTD/svg11.dtd">
<!-- Generated by graphviz version 2.43.0 (0)
 -->
<!-- Title: %3 Pages: 1 -->
<svg width="499pt" height="909pt"
 viewBox="0.00 0.00 499.00 909.00" xmlns="http://www.w3.org/2000/svg" xmlns:xlink="http://www.w3.org/1999/xlink">
<g id="graph0" class="graph" transform="scale(1 1) rotate(0) translate(4 905)">
<title>%3</title>
<polygon fill="white" stroke="transparent" points="-4,4 -4,-905 495,-905 495,4 -4,4"/>
<!-- start -->
<g id="node1" class="node">
<title>start</title>
<ellipse fill="none" stroke="black" cx="250" cy="-883" rx="34.39" ry="18"/>
<text text-anchor="middle" x="250" y="-879.3" font-family="Times,serif" font-size="14.00">Start</text>
</g>
<!-- magic_string -->
<g id="node2" class="node">
<title>magic_string</title>
<polygon fill="none" stroke="black" points="303.5,-828 196.5,-828 196.5,-790 303.5,-790 303.5,-828"/>
<text text-anchor="middle" x="250" y="-812.8" font-family="Times,serif" font-size="14.00">Prepare</text>
<text text-anchor="middle" x="250" y="-797.8" font-family="Times,serif" font-size="14.00">magic string</text>
</g>
<!-- start&#45;&gt;magic_string -->
<g id="edge1" class="edge">
<title>start:s&#45;&gt;magic_string:n</title>
<path fill="none" stroke="black" d="M250,-865C250,-852.54 250,-847.16 250,-838.13"/>
<polygon fill="black" stroke="black" points="253.5,-838 250,-828 246.5,-838 253.5,-838"/>
</g>
<!-- minor_version -->
<g id="node3" class="node">
<title>minor_version</title>
<polygon fill="none" stroke="black" points="308,-753 192,-753 192,-715 308,-715 308,-753"/>
<text text-anchor="middle" x="250" y="-737.8" font-family="Times,serif" font-size="14.00">Decide</text>
<text text-anchor="middle" x="250" y="-722.8" font-family="Times,serif" font-size="14.00">minor version</text>
</g>
<!-- magic_string&#45;&gt;minor_version -->
<g id="edge2" class="edge">
<title>magic_string:s&#45;&gt;minor_version:n</title>
<path fill="none" stroke="black" d="M250,-790C250,-777.54 250,-772.16 250,-763.13"/>
<polygon fill="black" stroke="black" points="253.5,-763 250,-753 246.5,-763 253.5,-763"/>
</g>
<!-- create_dict -->
<g id="node4" class="node">
<title>create_dict</title>
<polygon fill="none" stroke="black" points="250,-678 161,-640 250,-602 339,-640 250,-678"/>
<text text-anchor="middle" x="250" y="-643.8" font-family="Times,serif" font-size="14.00">Create</text>
<text text-anchor="middle" x="250" y="-628.8" font-family="Times,serif" font-size="14.00">dictionary</text>
</g>
<!-- minor_version&#45;&gt;create_dict -->
<g id="edge3" class="edge">
<title>minor_version:s&#45;&gt;create_dict:n</title>
<path fill="none" stroke="black" d="M250,-715C250,-702.54 250,-697.16 250,-688.13"/>
<polygon fill="black" stroke="black" points="253.5,-688 250,-678 246.5,-688 253.5,-688"/>
</g>
<!-- major_version -->
<g id="node5" class="node">
<title>major_version</title>
<polygon fill="none" stroke="black" points="168,-551 0,-513 168,-475 336,-513 168,-551"/>
<text text-anchor="middle" x="168" y="-516.8" font-family="Times,serif" font-size="14.00">Decide major version</text>
<text text-anchor="middle" x="168" y="-501.8" font-family="Times,serif" font-size="14.00">create padding</text>
</g>
<!-- create_dict&#45;&gt;major_version -->
<g id="edge4" class="edge">
<title>create_dict:s&#45;&gt;major_version:n</title>
<path fill="none" stroke="black" d="M250,-602C250,-563.11 182.65,-588.07 170.03,-561.15"/>
<polygon fill="black" stroke="black" points="173.39,-560.12 168,-551 166.53,-561.49 173.39,-560.12"/>
<text text-anchor="middle" x="276.5" y="-572.8" font-family="Times,serif" font-size="14.00">succeeded</text>
</g>
<!-- error -->
<g id="node9" class="node">
<title>error</title>
<polygon fill="none" stroke="black" points="343,-140 257,-140 257,-102 343,-102 343,-140"/>
<text text-anchor="middle" x="300" y="-124.8" font-family="Times,serif" font-size="14.00">Error</text>
<text text-anchor="middle" x="300" y="-109.8" font-family="Times,serif" font-size="14.00">handlings</text>
</g>
<!-- create_dict&#45;&gt;error -->
<g id="edge5" class="edge">
<title>create_dict:e&#45;&gt;error</title>
<path fill="none" stroke="black" d="M340,-640C406.57,-640 421,-580.57 421,-514 421,-514 421,-514 421,-243 421,-199.23 380.92,-165.76 346.9,-145.24"/>
<polygon fill="black" stroke="black" points="348.36,-142.04 337.95,-140.05 344.85,-148.09 348.36,-142.04"/>
<text text-anchor="middle" x="456" y="-389.8" font-family="Times,serif" font-size="14.00">failed</text>
<text text-anchor="middle" x="456" y="-374.8" font-family="Times,serif" font-size="14.00">(return 0)</text>
</g>
<!-- header_len -->
<g id="node6" class="node">
<title>header_len</title>
<polygon fill="none" stroke="black" points="119,-424 0,-386 119,-348 238,-386 119,-424"/>
<text text-anchor="middle" x="119" y="-389.8" font-family="Times,serif" font-size="14.00">Compute</text>
<text text-anchor="middle" x="119" y="-374.8" font-family="Times,serif" font-size="14.00">HEADER_LEN</text>
</g>
<!-- major_version&#45;&gt;header_len -->
<g id="edge6" class="edge">
<title>major_version:s&#45;&gt;header_len:n</title>
<path fill="none" stroke="black" d="M168,-475C168,-447.5 130.48,-453.14 121.11,-433.93"/>
<polygon fill="black" stroke="black" points="124.5,-433.06 119,-424 117.65,-434.51 124.5,-433.06"/>
<text text-anchor="middle" x="196.5" y="-445.8" font-family="Times,serif" font-size="14.00">succeeded</text>
</g>
<!-- major_version&#45;&gt;error -->
<g id="edge7" class="edge">
<title>major_version:e&#45;&gt;error</title>
<path fill="none" stroke="black" d="M337,-513C339.06,-513 338.14,-309.94 322,-206 319.06,-187.06 313.61,-166.21 308.87,-150.02"/>
<polygon fill="black" stroke="black" points="312.13,-148.69 305.9,-140.13 305.43,-150.71 312.13,-148.69"/>
<text text-anchor="middle" x="368" y="-318.8" font-family="Times,serif" font-size="14.00">failed</text>
<text text-anchor="middle" x="368" y="-303.8" font-family="Times,serif" font-size="14.00">(return 0)</text>
</g>
<!-- output -->
<g id="node7" class="node">
<title>output</title>
<polygon fill="none" stroke="black" points="94,-282 27,-244 94,-206 161,-244 94,-282"/>
<text text-anchor="middle" x="94" y="-247.8" font-family="Times,serif" font-size="14.00">Output</text>
<text text-anchor="middle" x="94" y="-232.8" font-family="Times,serif" font-size="14.00">header</text>
</g>
<!-- header_len&#45;&gt;output -->
<g id="edge8" class="edge">
<title>header_len:s&#45;&gt;output:n</title>
<path fill="none" stroke="black" d="M119,-348C119,-320.31 99.52,-314.52 94.95,-291.96"/>
<polygon fill="black" stroke="black" points="98.43,-291.62 94,-282 91.46,-292.29 98.43,-291.62"/>
<text text-anchor="middle" x="153.5" y="-311.3" font-family="Times,serif" font-size="14.00">succeeded</text>
</g>
<!-- header_len&#45;&gt;error -->
<g id="edge9" class="edge">
<title>header_len:e&#45;&gt;error</title>
<path fill="none" stroke="black" d="M239,-386C259.05,-386 246.16,-225.18 252,-206 258.22,-185.58 270.09,-164.74 280.47,-148.92"/>
<polygon fill="black" stroke="black" points="283.64,-150.48 286.35,-140.23 277.85,-146.55 283.64,-150.48"/>
<text text-anchor="middle" x="287" y="-247.8" font-family="Times,serif" font-size="14.00">failed</text>
<text text-anchor="middle" x="287" y="-232.8" font-family="Times,serif" font-size="14.00">(return 0)</text>
</g>
<!-- end -->
<g id="node8" class="node">
<title>end</title>
<ellipse fill="none" stroke="black" cx="110" cy="-18" rx="29.5" ry="18"/>
<text text-anchor="middle" x="110" y="-14.3" font-family="Times,serif" font-size="14.00">End</text>
</g>
<!-- output&#45;&gt;end -->
<g id="edge10" class="edge">
<title>output:s&#45;&gt;end</title>
<path fill="none" stroke="black" d="M94,-206C94,-149.01 101.47,-82.6 106.2,-46.25"/>
<polygon fill="black" stroke="black" points="109.72,-46.35 107.57,-35.98 102.78,-45.43 109.72,-46.35"/>
<text text-anchor="middle" x="172.5" y="-124.8" font-family="Times,serif" font-size="14.00">succeeded</text>
<text text-anchor="middle" x="172.5" y="-109.8" font-family="Times,serif" font-size="14.00">(return header_size)</text>
</g>
<!-- output&#45;&gt;error -->
<g id="edge11" class="edge">
<title>output:e&#45;&gt;error</title>
<path fill="none" stroke="black" d="M162,-244C178.89,-244 164.33,-222.56 161,-206 159.31,-197.59 155.58,-196.44 154,-188 151.54,-174.9 145.56,-168.32 154,-158 179.55,-126.76 203.93,-150.09 243,-140 244.27,-139.67 245.56,-139.33 246.85,-138.98"/>
<polygon fill="black" stroke="black" points="248.21,-142.24 256.88,-136.15 246.3,-135.5 248.21,-142.24"/>
<text text-anchor="middle" x="189" y="-176.8" font-family="Times,serif" font-size="14.00">failed</text>
<text text-anchor="middle" x="189" y="-161.8" font-family="Times,serif" font-size="14.00">(return 0)</text>
</g>
<!-- error&#45;&gt;end -->
<g id="edge12" class="edge">
<title>error:s&#45;&gt;end</title>
<path fill="none" stroke="black" d="M300,-102C300,-36.9 205.18,-22.36 149.51,-19.43"/>
<polygon fill="black" stroke="black" points="149.41,-15.92 139.27,-19 149.11,-22.92 149.41,-15.92"/>
<text text-anchor="middle" x="331" y="-72.8" font-family="Times,serif" font-size="14.00">failed</text>
<text text-anchor="middle" x="331" y="-57.8" font-family="Times,serif" font-size="14.00">(return 0)</text>
</g>
</g>
</svg>
