<?xml version="1.0" encoding="UTF-8" standalone="no"?>
<!DOCTYPE svg PUBLIC "-//W3C//DTD SVG 1.1//EN"
 "http://www.w3.org/Graphics/SVG/1.1/DTD/svg11.dtd">
<!-- Generated by graphviz version 2.43.0 (0)
 -->
<!-- Title: %3 Pages: 1 -->
<svg width="575pt" height="968pt"
 viewBox="0.00 0.00 575.00 968.00" xmlns="http://www.w3.org/2000/svg" xmlns:xlink="http://www.w3.org/1999/xlink">
<g id="graph0" class="graph" transform="scale(1 1) rotate(0) translate(4 964)">
<title>%3</title>
<polygon fill="white" stroke="transparent" points="-4,4 -4,-964 571,-964 571,4 -4,4"/>
<!-- start -->
<g id="node1" class="node">
<title>start</title>
<ellipse fill="none" stroke="black" cx="414" cy="-942" rx="34.39" ry="18"/>
<text text-anchor="middle" x="414" y="-938.3" font-family="Times,serif" font-size="14.00">Start</text>
</g>
<!-- magic_string -->
<g id="node2" class="node">
<title>magic_string</title>
<polygon fill="none" stroke="black" points="414,-887 307,-849 414,-811 521,-849 414,-887"/>
<text text-anchor="middle" x="414" y="-852.8" font-family="Times,serif" font-size="14.00">Check</text>
<text text-anchor="middle" x="414" y="-837.8" font-family="Times,serif" font-size="14.00">magic string</text>
</g>
<!-- start&#45;&gt;magic_string -->
<g id="edge1" class="edge">
<title>start:s&#45;&gt;magic_string:n</title>
<path fill="none" stroke="black" d="M414,-924C414,-911.54 414,-906.16 414,-897.13"/>
<polygon fill="black" stroke="black" points="417.5,-897 414,-887 410.5,-897 417.5,-897"/>
</g>
<!-- versions -->
<g id="node3" class="node">
<title>versions</title>
<polygon fill="none" stroke="black" points="395,-760 318,-722 395,-684 472,-722 395,-760"/>
<text text-anchor="middle" x="395" y="-725.8" font-family="Times,serif" font-size="14.00">Check</text>
<text text-anchor="middle" x="395" y="-710.8" font-family="Times,serif" font-size="14.00">versions</text>
</g>
<!-- magic_string&#45;&gt;versions -->
<g id="edge2" class="edge">
<title>magic_string:s&#45;&gt;versions:n</title>
<path fill="none" stroke="black" d="M414,-811C414,-790.59 400.47,-785.53 396.25,-769.92"/>
<polygon fill="black" stroke="black" points="399.72,-769.49 395,-760 392.77,-770.36 399.72,-769.49"/>
<text text-anchor="middle" x="446.5" y="-781.8" font-family="Times,serif" font-size="14.00">succeeded</text>
</g>
<!-- error -->
<g id="node9" class="node">
<title>error</title>
<polygon fill="none" stroke="black" points="401,-125 315,-125 315,-87 401,-87 401,-125"/>
<text text-anchor="middle" x="358" y="-109.8" font-family="Times,serif" font-size="14.00">Error</text>
<text text-anchor="middle" x="358" y="-94.8" font-family="Times,serif" font-size="14.00">handlings</text>
</g>
<!-- magic_string&#45;&gt;error -->
<g id="edge3" class="edge">
<title>magic_string:e&#45;&gt;error</title>
<path fill="none" stroke="black" d="M522,-849C578.04,-849 527,-779.04 527,-723 527,-723 527,-723 527,-213 527,-157.43 460.62,-129.88 411.06,-117.05"/>
<polygon fill="black" stroke="black" points="411.63,-113.59 401.08,-114.61 409.96,-120.39 411.63,-113.59"/>
<text text-anchor="middle" x="547" y="-464.3" font-family="Times,serif" font-size="14.00">failed</text>
</g>
<!-- header_len -->
<g id="node4" class="node">
<title>header_len</title>
<polygon fill="none" stroke="black" points="285,-633 166,-595 285,-557 404,-595 285,-633"/>
<text text-anchor="middle" x="285" y="-598.8" font-family="Times,serif" font-size="14.00">Load</text>
<text text-anchor="middle" x="285" y="-583.8" font-family="Times,serif" font-size="14.00">HEADER_LEN</text>
</g>
<!-- versions&#45;&gt;header_len -->
<g id="edge4" class="edge">
<title>versions:s&#45;&gt;header_len:n</title>
<path fill="none" stroke="black" d="M395,-684C395,-660.42 310.78,-659.69 289.73,-641.82"/>
<polygon fill="black" stroke="black" points="292.81,-640.16 285,-633 286.64,-643.47 292.81,-640.16"/>
<text text-anchor="middle" x="405.5" y="-654.8" font-family="Times,serif" font-size="14.00">succeeded</text>
</g>
<!-- versions&#45;&gt;error -->
<g id="edge5" class="edge">
<title>versions:e&#45;&gt;error</title>
<path fill="none" stroke="black" d="M473,-722C529,-722 472,-652 472,-596 472,-596 472,-596 472,-213 472,-175.74 438.93,-147.86 408.41,-130.07"/>
<polygon fill="black" stroke="black" points="409.92,-126.91 399.48,-125.1 406.51,-133.02 409.92,-126.91"/>
<text text-anchor="middle" x="492" y="-400.8" font-family="Times,serif" font-size="14.00">failed</text>
</g>
<!-- load_dict_padding -->
<g id="node5" class="node">
<title>load_dict_padding</title>
<polygon fill="none" stroke="black" points="221,-506 93,-468 221,-430 349,-468 221,-506"/>
<text text-anchor="middle" x="221" y="-471.8" font-family="Times,serif" font-size="14.00">Load dictionary</text>
<text text-anchor="middle" x="221" y="-456.8" font-family="Times,serif" font-size="14.00">and padding</text>
</g>
<!-- header_len&#45;&gt;load_dict_padding -->
<g id="edge6" class="edge">
<title>header_len:s&#45;&gt;load_dict_padding:n</title>
<path fill="none" stroke="black" d="M285,-557C285,-524.61 234.23,-538.31 223.13,-516"/>
<polygon fill="black" stroke="black" points="226.51,-515.05 221,-506 219.66,-516.51 226.51,-515.05"/>
<text text-anchor="middle" x="311.5" y="-527.8" font-family="Times,serif" font-size="14.00">succeeded</text>
</g>
<!-- header_len&#45;&gt;error -->
<g id="edge7" class="edge">
<title>header_len:e&#45;&gt;error</title>
<path fill="none" stroke="black" d="M405,-595C461,-595 404,-525 404,-469 404,-469 404,-469 404,-213 404,-184.17 389.5,-154.3 376.78,-133.64"/>
<polygon fill="black" stroke="black" points="379.65,-131.64 371.31,-125.11 373.76,-135.42 379.65,-131.64"/>
<text text-anchor="middle" x="424" y="-337.3" font-family="Times,serif" font-size="14.00">failed</text>
</g>
<!-- extract_dictionary -->
<g id="node6" class="node">
<title>extract_dictionary</title>
<polygon fill="none" stroke="black" points="201,-379 112,-341 201,-303 290,-341 201,-379"/>
<text text-anchor="middle" x="201" y="-344.8" font-family="Times,serif" font-size="14.00">Purify</text>
<text text-anchor="middle" x="201" y="-329.8" font-family="Times,serif" font-size="14.00">dictionary</text>
</g>
<!-- load_dict_padding&#45;&gt;extract_dictionary -->
<g id="edge8" class="edge">
<title>load_dict_padding:s&#45;&gt;extract_dictionary:n</title>
<path fill="none" stroke="black" d="M221,-430C221,-409.46 206.76,-404.61 202.31,-388.97"/>
<polygon fill="black" stroke="black" points="205.78,-388.46 201,-379 198.84,-389.37 205.78,-388.46"/>
<text text-anchor="middle" x="253.5" y="-400.8" font-family="Times,serif" font-size="14.00">succeeded</text>
</g>
<!-- load_dict_padding&#45;&gt;error -->
<g id="edge9" class="edge">
<title>load_dict_padding:e&#45;&gt;error</title>
<path fill="none" stroke="black" d="M350,-468C350,-468 350,-270 350,-270 351.16,-222.67 354.22,-167.67 356.2,-135.19"/>
<polygon fill="black" stroke="black" points="359.7,-135.28 356.82,-125.08 352.71,-134.84 359.7,-135.28"/>
<text text-anchor="middle" x="370" y="-273.8" font-family="Times,serif" font-size="14.00">failed</text>
</g>
<!-- extract_values -->
<g id="node7" class="node">
<title>extract_values</title>
<polygon fill="none" stroke="black" points="127,-252 0,-214 127,-176 254,-214 127,-252"/>
<text text-anchor="middle" x="127" y="-217.8" font-family="Times,serif" font-size="14.00">Extract values</text>
<text text-anchor="middle" x="127" y="-202.8" font-family="Times,serif" font-size="14.00">from dictionary</text>
</g>
<!-- extract_dictionary&#45;&gt;extract_values -->
<g id="edge10" class="edge">
<title>extract_dictionary:s&#45;&gt;extract_values:n</title>
<path fill="none" stroke="black" d="M201,-303C201,-266.96 140.75,-286.96 128.98,-261.86"/>
<polygon fill="black" stroke="black" points="132.4,-261.12 127,-252 125.54,-262.49 132.4,-261.12"/>
<text text-anchor="middle" x="228.5" y="-273.8" font-family="Times,serif" font-size="14.00">succeeded</text>
</g>
<!-- extract_dictionary&#45;&gt;error -->
<g id="edge11" class="edge">
<title>extract_dictionary:e&#45;&gt;error</title>
<path fill="none" stroke="black" d="M291,-341C309.39,-341 297.33,-193.14 304,-176 310.2,-160.07 321.37,-144.83 331.94,-132.74"/>
<polygon fill="black" stroke="black" points="334.59,-135.03 338.74,-125.28 329.42,-130.31 334.59,-135.03"/>
<text text-anchor="middle" x="324" y="-210.3" font-family="Times,serif" font-size="14.00">failed</text>
</g>
<!-- end -->
<g id="node8" class="node">
<title>end</title>
<ellipse fill="none" stroke="black" cx="160" cy="-18" rx="29.5" ry="18"/>
<text text-anchor="middle" x="160" y="-14.3" font-family="Times,serif" font-size="14.00">End</text>
</g>
<!-- extract_values&#45;&gt;end -->
<g id="edge12" class="edge">
<title>extract_values:s&#45;&gt;end</title>
<path fill="none" stroke="black" d="M127,-176C127,-129.21 141.21,-76.21 150.98,-45.31"/>
<polygon fill="black" stroke="black" points="154.34,-46.31 154.1,-35.72 147.68,-44.15 154.34,-46.31"/>
<text text-anchor="middle" x="207.5" y="-102.3" font-family="Times,serif" font-size="14.00">return header_size</text>
</g>
<!-- extract_values&#45;&gt;error -->
<g id="edge13" class="edge">
<title>extract_values:e&#45;&gt;error</title>
<path fill="none" stroke="black" d="M255,-214C271.89,-214 260.67,-191.52 254,-176 249.53,-165.61 240.33,-168.45 236,-158 233.45,-151.84 232.01,-148.34 236,-143 240.46,-137.03 274.1,-127.36 304.92,-119.54"/>
<polygon fill="black" stroke="black" points="305.94,-122.9 314.79,-117.08 304.24,-116.1 305.94,-122.9"/>
<text text-anchor="middle" x="256" y="-146.8" font-family="Times,serif" font-size="14.00">failed</text>
</g>
<!-- error&#45;&gt;end -->
<g id="edge14" class="edge">
<title>error:s&#45;&gt;end</title>
<path fill="none" stroke="black" d="M358,-87C358,-53.64 256.19,-33.16 198.58,-24.24"/>
<polygon fill="black" stroke="black" points="198.78,-20.73 188.37,-22.71 197.74,-27.65 198.78,-20.73"/>
<text text-anchor="middle" x="377" y="-57.8" font-family="Times,serif" font-size="14.00">return 0</text>
</g>
</g>
</svg>
